<svg width="500" height="750" viewBox="0 0 500 750" fill="none" xmlns="http://www.w3.org/2000/svg">
<g clip-path="url(#clip0_481_2)">
<rect width="500" height="750" fill="#080E18"/>
<rect x="364.168" y="311.752" width="76.5" height="60.5" rx="10.75" transform="rotate(37.4564 364.168 311.752)" stroke="#2B323E" stroke-width="2.5"/>
<path d="M372.902 346.486L371.436 354.842C371.382 355.151 371.186 355.416 370.908 355.559L362.521 359.872C361.684 360.302 361.852 361.547 362.774 361.74L383.935 366.164C384.773 366.339 385.429 365.449 385.015 364.7L374.762 346.175C374.305 345.35 373.065 345.557 372.902 346.486Z" stroke="#2B323E" stroke-width="2.5"/>
<rect x="357.168" y="683.751" width="76.5" height="60.5" rx="10.75" transform="rotate(37.4564 357.168 683.751)" stroke="#2B323E" stroke-width="2.5"/>
<path d="M365.902 718.485L364.436 726.841C364.382 727.15 364.186 727.415 363.908 727.558L355.521 731.871C354.684 732.301 354.852 733.546 355.774 733.739L376.935 738.163C377.773 738.338 378.429 737.448 378.015 736.699L367.762 718.174C367.305 717.349 366.065 717.556 365.902 718.485Z" stroke="#2B323E" stroke-width="2.5"/>
<rect x="364.168" y="311.752" width="76.5" height="60.5" rx="10.75" transform="rotate(37.4564 364.168 311.752)" stroke="#2B323E" stroke-width="2.5"/>
<path d="M372.902 346.486L371.436 354.842C371.382 355.151 371.186 355.416 370.908 355.559L362.521 359.872C361.684 360.302 361.852 361.547 362.774 361.74L383.935 366.164C384.773 366.339 385.429 365.449 385.015 364.7L374.762 346.175C374.305 345.35 373.065 345.557 372.902 346.486Z" stroke="#2B323E" stroke-width="2.5"/>
<rect x="357.168" y="683.751" width="76.5" height="60.5" rx="10.75" transform="rotate(37.4564 357.168 683.751)" stroke="#2B323E" stroke-width="2.5"/>
<path d="M365.902 718.485L364.436 726.841C364.382 727.15 364.186 727.415 363.908 727.558L355.521 731.871C354.684 732.301 354.852 733.546 355.774 733.739L376.935 738.163C377.773 738.338 378.429 737.448 378.015 736.699L367.762 718.174C367.305 717.349 366.065 717.556 365.902 718.485Z" stroke="#2B323E" stroke-width="2.5"/>
<rect x="364.168" y="311.752" width="76.5" height="60.5" rx="10.75" transform="rotate(37.4564 364.168 311.752)" stroke="#2B323E" stroke-width="2.5"/>
<path d="M372.902 346.486L371.436 354.842C371.382 355.151 371.186 355.416 370.908 355.559L362.521 359.872C361.684 360.302 361.852 361.547 362.774 361.74L383.935 366.164C384.773 366.339 385.429 365.449 385.015 364.7L374.762 346.175C374.305 345.35 373.065 345.557 372.902 346.486Z" stroke="#2B323E" stroke-width="2.5"/>
<rect x="357.168" y="683.751" width="76.5" height="60.5" rx="10.75" transform="rotate(37.4564 357.168 683.751)" stroke="#2B323E" stroke-width="2.5"/>
<path d="M365.902 718.485L364.436 726.841C364.382 727.15 364.186 727.415 363.908 727.558L355.521 731.871C354.684 732.301 354.852 733.546 355.774 733.739L376.935 738.163C377.773 738.338 378.429 737.448 378.015 736.699L367.762 718.174C367.305 717.349 366.065 717.556 365.902 718.485Z" stroke="#2B323E" stroke-width="2.5"/>
<rect x="364.168" y="311.752" width="76.5" height="60.5" rx="10.75" transform="rotate(37.4564 364.168 311.752)" stroke="#2B323E" stroke-width="2.5"/>
<path d="M372.902 346.486L371.436 354.842C371.382 355.151 371.186 355.416 370.908 355.559L362.521 359.872C361.684 360.302 361.852 361.547 362.774 361.74L383.935 366.164C384.773 366.339 385.429 365.449 385.015 364.7L374.762 346.175C374.305 345.35 373.065 345.557 372.902 346.486Z" stroke="#2B323E" stroke-width="2.5"/>
<rect x="357.168" y="683.751" width="76.5" height="60.5" rx="10.75" transform="rotate(37.4564 357.168 683.751)" stroke="#2B323E" stroke-width="2.5"/>
<path d="M365.902 718.485L364.436 726.841C364.382 727.15 364.186 727.415 363.908 727.558L355.521 731.871C354.684 732.301 354.852 733.546 355.774 733.739L376.935 738.163C377.773 738.338 378.429 737.448 378.015 736.699L367.762 718.174C367.305 717.349 366.065 717.556 365.902 718.485Z" stroke="#2B323E" stroke-width="2.5"/>
<rect x="238.364" y="323.179" width="76.5" height="60.5" rx="10.75" transform="rotate(-5.51191 238.364 323.179)" stroke="#2B323E" stroke-width="2.5"/>
<path d="M272.36 361.454L279.517 356.898C279.78 356.73 280.108 356.695 280.401 356.804L289.243 360.083C290.127 360.41 290.932 359.446 290.452 358.636L279.437 340.034C279.001 339.297 277.902 339.413 277.629 340.224L270.875 360.292C270.575 361.186 271.565 361.961 272.36 361.454Z" stroke="#2B323E" stroke-width="2.5"/>
<rect x="231.364" y="695.178" width="76.5" height="60.5" rx="10.75" transform="rotate(-5.51191 231.364 695.178)" stroke="#2B323E" stroke-width="2.5"/>
<path d="M265.36 733.453L272.517 728.897C272.78 728.729 273.108 728.694 273.401 728.803L282.243 732.082C283.127 732.409 283.932 731.445 283.452 730.635L272.437 712.033C272.001 711.296 270.902 711.412 270.629 712.223L263.875 732.291C263.575 733.185 264.565 733.96 265.36 733.453Z" stroke="#2B323E" stroke-width="2.5"/>
<rect x="144.841" y="306.457" width="76.5" height="60.5" rx="10.75" transform="rotate(-21.3399 144.841 306.457)" stroke="#2B323E" stroke-width="2.5"/>
<path d="M205.206 324.902L198.771 319.374C198.534 319.17 198.406 318.867 198.425 318.554L199.001 309.141C199.058 308.201 197.902 307.71 197.266 308.405L182.654 324.338C182.076 324.968 182.505 325.987 183.361 326.013L204.524 326.661C205.467 326.689 205.922 325.517 205.206 324.902Z" stroke="#2B323E" stroke-width="2.5"/>
<rect x="134.619" y="682.923" width="76.5" height="60.5" rx="10.75" transform="rotate(-21.3399 134.619 682.923)" stroke="#2B323E" stroke-width="2.5"/>
<path d="M194.985 701.368L188.55 695.84C188.313 695.636 188.185 695.333 188.204 695.02L188.78 685.607C188.837 684.667 187.681 684.176 187.044 684.87L172.433 700.803C171.855 701.434 172.284 702.453 173.139 702.479L194.303 703.126C195.246 703.155 195.701 701.983 194.985 701.368Z" stroke="#2B323E" stroke-width="2.5"/>
<rect x="377.619" y="274.924" width="76.5" height="60.5" rx="10.75" transform="rotate(-21.3399 377.619 274.924)" stroke="#2B323E" stroke-width="2.5"/>
<path d="M427.083 275.988L422.433 283.083C422.261 283.345 421.977 283.512 421.665 283.533L412.256 284.179C411.316 284.244 410.979 285.453 411.75 285.995L429.438 298.424C430.139 298.916 431.093 298.358 431.008 297.507L428.914 276.437C428.821 275.498 427.6 275.199 427.083 275.988Z" stroke="#2B323E" stroke-width="2.5"/>
<rect x="370.619" y="646.923" width="76.5" height="60.5" rx="10.75" transform="rotate(-21.3399 370.619 646.923)" stroke="#2B323E" stroke-width="2.5"/>
<path d="M420.083 647.987L415.433 655.082C415.261 655.344 414.977 655.511 414.665 655.532L405.256 656.178C404.316 656.243 403.979 657.452 404.75 657.994L422.438 670.423C423.139 670.915 424.093 670.357 424.008 669.506L421.914 648.436C421.821 647.497 420.6 647.198 420.083 647.987Z" stroke="#2B323E" stroke-width="2.5"/>
<rect x="142.989" y="-31.2466" width="76.5" height="60.5" rx="10.75" transform="rotate(37.4564 142.989 -31.2466)" stroke="#2B323E" stroke-width="2.5"/>
<path d="M306.05 250.646L306.053 250.649L328.3 270.68L328.3 270.68L328.303 270.682C328.328 270.704 328.35 270.737 328.36 270.784C328.371 270.828 328.371 270.886 328.35 270.949C328.317 271.024 328.265 271.092 328.197 271.144C328.13 271.195 328.057 271.225 327.989 271.235L306.309 272.978C306.308 272.978 306.307 272.978 306.307 272.978C306.227 272.983 306.171 272.958 306.136 272.926C306.102 272.895 306.07 272.842 306.067 272.762C306.067 272.762 306.067 272.761 306.067 272.76L305.533 251.009C305.535 250.919 305.571 250.817 305.647 250.731C305.685 250.689 305.729 250.655 305.776 250.629C305.838 250.601 305.897 250.594 305.943 250.6C305.99 250.606 306.025 250.624 306.05 250.646Z" stroke="#2B323E" stroke-width="2.5"/>
<path d="M174.897 117.205L174.899 117.201L185.797 89.3183L185.797 89.3183L185.799 89.3145C185.811 89.2841 185.815 89.245 185.804 89.1985C185.793 89.1542 185.767 89.1027 185.72 89.0552C185.658 89.0033 185.58 88.9661 185.497 88.95C185.413 88.9338 185.335 88.9405 185.27 88.962L165.111 97.1295C165.11 97.1297 165.11 97.1299 165.109 97.1302C165.036 97.1608 164.997 97.2093 164.98 97.2527C164.963 97.2961 164.959 97.3582 164.992 97.4304C164.992 97.431 164.992 97.4316 164.993 97.4321L174.273 117.112C174.315 117.191 174.392 117.266 174.499 117.31C174.552 117.329 174.607 117.34 174.66 117.342C174.729 117.34 174.784 117.319 174.822 117.294C174.862 117.267 174.885 117.235 174.897 117.205Z" fill="#111111" stroke="#2B323E" stroke-width="2.5"/>
<path d="M148.128 398.626L154.059 399.529C154.37 399.576 154.639 399.76 154.787 400.026L157.978 405.751C158.429 406.562 159.694 406.364 159.875 405.454L162.896 390.311C163.06 389.489 162.153 388.868 161.397 389.286L147.798 396.806C146.962 397.269 147.181 398.482 148.128 398.626Z" stroke="#2B323E" stroke-width="2.5"/>
<rect x="0.227412" y="1.71856" width="59.3379" height="46.3067" rx="10.75" transform="matrix(0.805274 0.592903 -0.623345 0.781947 146.539 359.749)" stroke="#2B323E" stroke-width="2.5"/>
<path d="M299.049 622.644L299.052 622.647L321.3 642.678L321.3 642.678L321.303 642.68C321.327 642.702 321.349 642.735 321.36 642.782C321.37 642.826 321.37 642.884 321.349 642.947C321.317 643.022 321.264 643.09 321.197 643.142C321.13 643.193 321.056 643.223 320.989 643.233L299.308 644.976C299.307 644.976 299.307 644.976 299.306 644.976C299.227 644.981 299.17 644.956 299.136 644.924C299.101 644.893 299.069 644.84 299.067 644.76C299.067 644.76 299.067 644.759 299.067 644.758L298.533 623.007C298.535 622.917 298.57 622.815 298.646 622.729C298.685 622.687 298.729 622.653 298.775 622.627C298.838 622.599 298.896 622.592 298.942 622.598C298.99 622.604 299.025 622.622 299.049 622.644Z" stroke="#2B323E" stroke-width="2.5"/>
<path d="M167.897 489.203L167.899 489.199L178.797 461.316L178.797 461.316L178.799 461.313C178.811 461.282 178.815 461.243 178.804 461.197C178.793 461.152 178.767 461.101 178.72 461.053C178.658 461.001 178.58 460.964 178.497 460.948C178.413 460.932 178.335 460.939 178.27 460.96L158.111 469.128C158.11 469.128 158.11 469.128 158.109 469.128C158.036 469.159 157.997 469.207 157.98 469.251C157.963 469.294 157.959 469.356 157.992 469.428C157.992 469.429 157.992 469.43 157.993 469.43L167.273 489.11C167.315 489.189 167.392 489.264 167.499 489.308C167.552 489.327 167.607 489.338 167.66 489.34C167.729 489.338 167.784 489.317 167.822 489.292C167.862 489.265 167.885 489.233 167.897 489.203Z" fill="#111111" stroke="#2B323E" stroke-width="2.5"/>
<rect x="-0.232075" y="1.75247" width="76.5" height="60.5" rx="10.75" transform="matrix(-0.793817 0.608157 0.608157 0.793817 166.051 146.969)" stroke="#2B323E" stroke-width="2.5"/>
<path d="M158.567 182.953L160.033 191.309C160.087 191.617 160.282 191.883 160.561 192.026L168.947 196.338C169.785 196.769 169.617 198.014 168.695 198.207L147.534 202.63C146.696 202.805 146.04 201.916 146.454 201.167L156.707 182.642C157.164 181.817 158.404 182.024 158.567 182.953Z" stroke="#2B323E" stroke-width="2.5"/>
<rect x="-0.232075" y="1.75247" width="76.5" height="60.5" rx="10.75" transform="matrix(-0.793817 0.608157 0.608157 0.793817 159.051 518.968)" stroke="#2B323E" stroke-width="2.5"/>
<path d="M151.567 554.952L153.033 563.308C153.087 563.616 153.282 563.882 153.561 564.025L161.947 568.337C162.785 568.768 162.617 570.013 161.695 570.206L140.534 574.629C139.696 574.804 139.04 573.915 139.454 573.166L149.707 554.641C150.164 553.816 151.404 554.023 151.567 554.952Z" stroke="#2B323E" stroke-width="2.5"/>
<rect x="-0.232075" y="1.75247" width="76.5" height="60.5" rx="10.75" transform="matrix(-0.793817 0.608157 0.608157 0.793817 -0.770649 86.5025)" stroke="#2B323E" stroke-width="2.5"/>
<path d="M-8.25493 122.486L-6.78874 130.842C-6.73465 131.151 -6.5394 131.416 -6.2611 131.559L2.12553 135.872C2.96336 136.302 2.79503 137.547 1.87285 137.74L-19.2881 142.164C-20.1257 142.339 -20.782 141.449 -20.3677 140.7L-10.1148 122.175C-9.65817 121.35 -8.41792 121.557 -8.25493 122.486Z" stroke="#2B323E" stroke-width="2.5"/>
<rect x="-0.232075" y="1.75247" width="76.5" height="60.5" rx="10.75" transform="matrix(-0.793817 0.608157 0.608157 0.793817 -7.77065 458.501)" stroke="#2B323E" stroke-width="2.5"/>
<rect x="142.989" y="-31.2475" width="76.5" height="60.5" rx="10.75" transform="rotate(37.4564 142.989 -31.2475)" stroke="#2B323E" stroke-width="2.5"/>
<rect x="-0.232075" y="1.75247" width="76.5" height="60.5" rx="10.75" transform="matrix(-0.793817 0.608157 0.608157 0.793817 -0.770649 86.5025)" stroke="#2B323E" stroke-width="2.5"/>
<path d="M-8.25493 122.486L-6.78874 130.842C-6.73465 131.151 -6.5394 131.416 -6.2611 131.559L2.12553 135.872C2.96336 136.302 2.79503 137.547 1.87285 137.74L-19.2881 142.164C-20.1257 142.339 -20.782 141.449 -20.3677 140.7L-10.1148 122.175C-9.65817 121.35 -8.41792 121.557 -8.25493 122.486Z" stroke="#2B323E" stroke-width="2.5"/>
<rect x="-0.232075" y="1.75247" width="76.5" height="60.5" rx="10.75" transform="matrix(-0.793817 0.608157 0.608157 0.793817 -7.77065 458.501)" stroke="#2B323E" stroke-width="2.5"/>
<rect x="142.989" y="-31.2475" width="76.5" height="60.5" rx="10.75" transform="rotate(37.4564 142.989 -31.2475)" stroke="#2B323E" stroke-width="2.5"/>
<rect x="-0.232075" y="1.75247" width="76.5" height="60.5" rx="10.75" transform="matrix(-0.793817 0.608157 0.608157 0.793817 -0.770649 86.5025)" stroke="#2B323E" stroke-width="2.5"/>
<path d="M-8.25493 122.486L-6.78874 130.842C-6.73465 131.151 -6.5394 131.416 -6.2611 131.559L2.12553 135.872C2.96336 136.302 2.79503 137.547 1.87285 137.74L-19.2881 142.164C-20.1257 142.339 -20.782 141.449 -20.3677 140.7L-10.1148 122.175C-9.65817 121.35 -8.41792 121.557 -8.25493 122.486Z" stroke="#2B323E" stroke-width="2.5"/>
<rect x="-0.232075" y="1.75247" width="76.5" height="60.5" rx="10.75" transform="matrix(-0.793817 0.608157 0.608157 0.793817 -7.77065 458.501)" stroke="#2B323E" stroke-width="2.5"/>
<rect x="142.989" y="-31.2475" width="76.5" height="60.5" rx="10.75" transform="rotate(37.4564 142.989 -31.2475)" stroke="#2B323E" stroke-width="2.5"/>
<path d="M141.472 16.5118L150.791 19.9493C151.05 20.0449 151.258 20.2438 151.366 20.4985L155.65 30.6456C156.018 31.5158 157.276 31.4383 157.534 30.5296L163.716 8.74292C163.936 7.96774 163.196 7.26405 162.433 7.52295L141.497 14.6266C140.604 14.9294 140.588 16.1856 141.472 16.5118Z" stroke="#2B323E" stroke-width="2.5"/>
<rect x="-0.232075" y="1.75247" width="76.5" height="60.5" rx="10.75" transform="matrix(-0.793817 0.608157 0.608157 0.793817 126.051 233.969)" stroke="#2B323E" stroke-width="2.5"/>
<path d="M118.567 269.953L120.033 278.309C120.087 278.617 120.282 278.883 120.561 279.026L128.947 283.338C129.785 283.769 129.617 285.014 128.695 285.207L107.534 289.63C106.696 289.805 106.04 288.916 106.454 288.167L116.707 269.642C117.164 268.817 118.404 269.024 118.567 269.953Z" stroke="#2B323E" stroke-width="2.5"/>
<rect x="-0.232075" y="1.75247" width="76.5" height="60.5" rx="10.75" transform="matrix(-0.793817 0.608157 0.608157 0.793817 119.051 605.968)" stroke="#2B323E" stroke-width="2.5"/>
<path d="M111.567 641.952L113.033 650.308C113.087 650.616 113.282 650.882 113.561 651.025L121.947 655.337C122.785 655.768 122.617 657.013 121.695 657.206L100.534 661.629C99.6961 661.804 99.0397 660.915 99.4541 660.166L109.707 641.641C110.164 640.816 111.404 641.023 111.567 641.952Z" stroke="#2B323E" stroke-width="2.5"/>
<rect x="-0.232075" y="1.75247" width="76.5" height="60.5" rx="10.75" transform="matrix(-0.793817 0.608157 0.608157 0.793817 -0.770649 86.5025)" stroke="#2B323E" stroke-width="2.5"/>
<path d="M-8.25493 122.486L-6.78874 130.842C-6.73465 131.151 -6.5394 131.416 -6.2611 131.559L2.12553 135.872C2.96336 136.302 2.79503 137.547 1.87285 137.74L-19.2881 142.164C-20.1257 142.339 -20.782 141.449 -20.3677 140.7L-10.1148 122.175C-9.65817 121.35 -8.41792 121.557 -8.25493 122.486Z" stroke="#2B323E" stroke-width="2.5"/>
<rect x="-0.232075" y="1.75247" width="76.5" height="60.5" rx="10.75" transform="matrix(-0.793817 0.608157 0.608157 0.793817 -7.77065 458.501)" stroke="#2B323E" stroke-width="2.5"/>
<rect x="17.1861" y="-19.8212" width="76.5" height="60.5" rx="10.75" transform="rotate(-5.51191 17.1861 -19.8212)" stroke="#2B323E" stroke-width="2.5"/>
<path d="M47.2518 -0.357894L51.8744 6.75583C52.0449 7.01824 52.0827 7.34533 51.9766 7.63973L48.7794 16.5118C48.46 17.3981 49.4314 18.194 50.2376 17.7065L68.737 6.52043C69.4693 6.07765 69.3433 4.97946 68.5297 4.71403L48.4005 -1.85345C47.504 -2.14596 46.738 -1.14866 47.2518 -0.357894Z" stroke="#2B323E" stroke-width="2.5"/>
<rect x="-1.36429" y="1.12415" width="76.5" height="60.5" rx="10.75" transform="matrix(-0.995376 -0.0960527 -0.0960527 0.995376 287.033 143.929)" stroke="#2B323E" stroke-width="2.5"/>
<path d="M258.217 164.642L253.594 171.756C253.424 172.018 253.386 172.345 253.492 172.64L256.689 181.512C257.009 182.398 256.037 183.194 255.231 182.707L236.732 171.52C235.999 171.078 236.125 169.979 236.939 169.714L257.068 163.147C257.965 162.854 258.731 163.851 258.217 164.642Z" stroke="#2B323E" stroke-width="2.5"/>
<rect x="-1.36429" y="1.12415" width="76.5" height="60.5" rx="10.75" transform="matrix(-0.995376 -0.0960527 -0.0960527 0.995376 278.072 523.462)" stroke="#2B323E" stroke-width="2.5"/>
<path d="M249.256 544.175L244.633 551.289C244.463 551.551 244.425 551.879 244.531 552.173L247.728 561.045C248.048 561.931 247.076 562.727 246.27 562.24L227.771 551.054C227.039 550.611 227.165 549.513 227.978 549.247L248.107 542.68C249.004 542.387 249.77 543.385 249.256 544.175Z" stroke="#2B323E" stroke-width="2.5"/>
<rect x="-1.36429" y="1.12415" width="76.5" height="60.5" rx="10.75" transform="matrix(-0.995376 -0.0960527 -0.0960527 0.995376 117.894 126.929)" stroke="#2B323E" stroke-width="2.5"/>
<path d="M84.226 167.013L77.4515 161.906C77.2016 161.718 76.8779 161.657 76.5768 161.743L67.5036 164.314C66.5972 164.571 65.8709 163.546 66.4134 162.776L78.8608 145.101C79.3535 144.401 80.4402 144.603 80.6483 145.433L85.7979 165.971C86.0273 166.886 84.979 167.581 84.226 167.013Z" stroke="#2B323E" stroke-width="2.5"/>
<rect x="-1.36429" y="1.12415" width="76.5" height="60.5" rx="10.75" transform="matrix(-0.995376 -0.0960527 -0.0960527 0.995376 110.894 498.928)" stroke="#2B323E" stroke-width="2.5"/>
<path d="M77.226 539.012L70.4515 533.905C70.2016 533.717 69.8779 533.656 69.5768 533.742L60.5036 536.313C59.5972 536.57 58.8709 535.545 59.4134 534.775L71.8608 517.1C72.3535 516.4 73.4402 516.602 73.6483 517.432L78.7979 537.97C79.0273 538.885 77.979 539.58 77.226 539.012Z" stroke="#2B323E" stroke-width="2.5"/>
<path d="M260.588 120.026L260.589 120.022L266.146 93.1453L266.146 93.1453L266.147 93.1413C266.149 93.1333 266.154 93.1199 266.17 93.1043C266.186 93.0896 266.213 93.0725 266.252 93.0631C266.307 93.0576 266.366 93.0656 266.42 93.0876C266.475 93.1097 266.517 93.1425 266.545 93.1764L277.954 109.524C277.955 109.525 277.955 109.525 277.955 109.526C277.981 109.563 277.98 109.591 277.977 109.604C277.975 109.618 277.964 109.644 277.926 109.668C277.925 109.668 277.925 109.669 277.925 109.669L260.96 120.155C260.911 120.182 260.84 120.197 260.761 120.182C260.723 120.174 260.688 120.16 260.656 120.141C260.622 120.117 260.604 120.089 260.595 120.069L259.447 120.564L260.595 120.069C260.586 120.048 260.587 120.034 260.588 120.026Z" fill="#111111" stroke="#2B323E" stroke-width="2.5"/>
<rect x="240.528" y="71.9591" width="69.9247" height="55.2564" rx="10.75" transform="rotate(12.5808 240.528 71.9591)" stroke="#2B323E" stroke-width="2.5"/>
<path d="M256.468 496.991L256.468 496.987L262.863 466.059L262.863 466.059L262.864 466.055C262.874 466.007 262.899 465.957 262.946 465.913C262.991 465.871 263.056 465.834 263.139 465.817C263.236 465.805 263.339 465.818 263.434 465.856C263.528 465.894 263.604 465.953 263.657 466.02L276.791 484.838C276.791 484.839 276.792 484.84 276.792 484.84C276.85 484.924 276.861 485.009 276.847 485.076C276.833 485.143 276.79 485.216 276.703 485.27C276.703 485.271 276.702 485.271 276.702 485.272L257.175 497.342C257.078 497.396 256.948 497.421 256.813 497.395C256.746 497.38 256.683 497.355 256.628 497.321C256.557 497.272 256.511 497.212 256.486 497.154C256.461 497.095 256.457 497.039 256.468 496.991Z" fill="#111111" stroke="#2B323E" stroke-width="2.5"/>
<rect x="233.424" y="441.492" width="80.8428" height="63.9632" rx="10.75" transform="rotate(12.5808 233.424 441.492)" stroke="#2B323E" stroke-width="2.5"/>
<rect x="41.4054" y="57.4721" width="76.5" height="60.5" rx="10.75" transform="rotate(-18.6169 41.4054 57.4721)" stroke="#2B323E" stroke-width="2.5"/>
<path d="M101.143 77.7328L94.5372 72.4102C94.2935 72.2138 94.1558 71.9147 94.165 71.6019L94.4436 62.1755C94.4714 61.2338 93.3005 60.7796 92.686 61.4937L78.5846 77.8798C78.0264 78.5284 78.4878 79.5329 79.3435 79.5321L100.517 79.5115C101.46 79.5106 101.878 78.3245 101.143 77.7328Z" stroke="#2B323E" stroke-width="2.5"/>
<rect x="34.4054" y="429.471" width="76.5" height="60.5" rx="10.75" transform="rotate(-18.6169 34.4054 429.471)" stroke="#2B323E" stroke-width="2.5"/>
<path d="M94.1434 449.732L87.5372 444.409C87.2935 444.213 87.1558 443.914 87.165 443.601L87.4436 434.175C87.4714 433.233 86.3005 432.779 85.686 433.493L71.5846 449.879C71.0264 450.527 71.4878 451.532 72.3435 451.531L93.517 451.511C94.4601 451.51 94.8778 450.324 94.1434 449.732Z" stroke="#2B323E" stroke-width="2.5"/>
<rect x="-1.58364" y="0.785544" width="76.5" height="60.5" rx="10.75" transform="matrix(-0.947674 -0.319239 -0.319239 0.947674 271.967 228.222)" stroke="#2B323E" stroke-width="2.5"/>
<path d="M239.521 241.611L233.406 247.492C233.18 247.709 233.069 248.019 233.106 248.329L234.208 257.695C234.318 258.631 233.192 259.186 232.517 258.528L217.036 243.439C216.423 242.842 216.795 241.801 217.647 241.727L238.741 239.894C239.681 239.813 240.201 240.958 239.521 241.611Z" stroke="#2B323E" stroke-width="2.5"/>
<rect x="-1.58364" y="0.785544" width="76.5" height="60.5" rx="10.75" transform="matrix(-0.947674 -0.319239 -0.319239 0.947674 264.967 600.221)" stroke="#2B323E" stroke-width="2.5"/>
<path d="M232.521 613.61L226.406 619.491C226.18 619.708 226.069 620.018 226.106 620.329L227.208 629.694C227.318 630.63 226.192 631.185 225.517 630.527L210.036 615.438C209.423 614.841 209.795 613.8 210.647 613.726L231.741 611.893C232.681 611.812 233.201 612.957 232.521 613.61Z" stroke="#2B323E" stroke-width="2.5"/>
<rect x="207.405" y="19.4721" width="76.5" height="60.5" rx="10.75" transform="rotate(-18.6169 207.405 19.4721)" stroke="#2B323E" stroke-width="2.5"/>
<path d="M241.101 31.6114L247.216 37.4918C247.442 37.7087 247.553 38.0187 247.516 38.3295L246.414 47.6954C246.304 48.6311 247.43 49.186 248.105 48.5284L263.586 33.4392C264.199 32.8419 263.827 31.8008 262.975 31.7268L241.881 29.8944C240.941 29.8128 240.421 30.9578 241.101 31.6114Z" stroke="#2B323E" stroke-width="2.5"/>
<rect x="186.584" y="404.642" width="62.8313" height="49.5996" rx="10.75" transform="rotate(-18.6169 186.584 404.642)" stroke="#2B323E" stroke-width="2.5"/>
<path d="M214.528 414.885L219.17 419.349C219.396 419.566 219.507 419.876 219.47 420.186L218.626 427.362C218.516 428.297 219.642 428.852 220.317 428.195L232.499 416.32C233.112 415.723 232.741 414.682 231.888 414.608L215.308 413.168C214.368 413.086 213.848 414.231 214.528 414.885Z" stroke="#2B323E" stroke-width="2.5"/>
<rect x="-14.4164" y="382.642" width="62.8313" height="49.5996" rx="10.75" transform="rotate(-18.6169 -14.4164 382.642)" stroke="#2B323E" stroke-width="2.5"/>
<rect x="62.94" y="352.704" width="62.8313" height="49.5996" rx="10.75" transform="rotate(-27.6169 62.94 352.704)" stroke="#2B323E" stroke-width="2.5"/>
<path d="M13.5281 392.885L18.1702 397.349C18.3958 397.566 18.5068 397.876 18.4702 398.186L17.6258 405.362C17.5156 406.297 18.6422 406.852 19.3169 406.195L31.4994 394.32C32.1123 393.723 31.7405 392.682 30.888 392.608L14.3078 391.168C13.3683 391.086 12.8484 392.231 13.5281 392.885Z" stroke="#2B323E" stroke-width="2.5"/>
<path d="M92.3362 355.952L97.6514 359.588C97.9096 359.765 98.0703 360.052 98.0855 360.365L98.4369 367.581C98.4827 368.522 99.6854 368.884 100.242 368.124L110.298 354.402C110.804 353.711 110.265 352.746 109.412 352.814L92.8218 354.13C91.8817 354.204 91.5579 355.419 92.3362 355.952Z" stroke="#2B323E" stroke-width="2.5"/>
<rect x="444.584" y="595.642" width="62.8313" height="49.5996" rx="10.75" transform="rotate(-18.6169 444.584 595.642)" stroke="#2B323E" stroke-width="2.5"/>
<path d="M472.528 605.885L477.17 610.349C477.396 610.566 477.507 610.876 477.47 611.186L476.626 618.362C476.516 619.297 477.642 619.852 478.317 619.195L490.499 607.32C491.112 606.723 490.741 605.682 489.888 605.608L473.308 604.168C472.368 604.086 471.848 605.231 472.528 605.885Z" stroke="#2B323E" stroke-width="2.5"/>
<rect x="-1.58364" y="0.785544" width="76.5" height="60.5" rx="10.75" transform="matrix(-0.947674 -0.319239 -0.319239 0.947674 99.9667 208.222)" stroke="#2B323E" stroke-width="2.5"/>
<path d="M67.5212 221.611L61.4061 227.492C61.1805 227.709 61.0695 228.019 61.106 228.329L62.2084 237.695C62.3185 238.631 61.1919 239.186 60.5173 238.528L45.036 223.439C44.4232 222.842 44.7949 221.801 45.6474 221.727L66.7415 219.894C67.681 219.813 68.2009 220.958 67.5212 221.611Z" stroke="#2B323E" stroke-width="2.5"/>
<rect x="-1.58364" y="0.785544" width="76.5" height="60.5" rx="10.75" transform="matrix(-0.947674 -0.319239 -0.319239 0.947674 92.9667 580.221)" stroke="#2B323E" stroke-width="2.5"/>
<path d="M60.5212 593.61L54.4061 599.491C54.1805 599.708 54.0695 600.018 54.106 600.329L55.2084 609.694C55.3185 610.63 54.1919 611.185 53.5173 610.527L38.036 595.438C37.4232 594.841 37.7949 593.8 38.6474 593.726L59.7415 591.893C60.681 591.812 61.2009 592.957 60.5212 593.61Z" stroke="#2B323E" stroke-width="2.5"/>
<rect x="-1.58364" y="0.785544" width="76.5" height="60.5" rx="10.75" transform="matrix(-0.947674 -0.319239 -0.319239 0.947674 77.1449 300.755)" stroke="#2B323E" stroke-width="2.5"/>
<path d="M44.6994 314.145L38.5843 320.025C38.3587 320.242 38.2477 320.552 38.2843 320.863L39.3866 330.229C39.4967 331.164 38.3701 331.719 37.6955 331.062L22.2142 315.972C21.6014 315.375 21.9731 314.334 22.8256 314.26L43.9197 312.428C44.8592 312.346 45.3792 313.491 44.6994 314.145Z" stroke="#2B323E" stroke-width="2.5"/>
<rect x="-1.58364" y="0.785544" width="76.5" height="60.5" rx="10.75" transform="matrix(-0.947674 -0.319239 -0.319239 0.947674 78.1449 686.221)" stroke="#2B323E" stroke-width="2.5"/>
<path d="M45.6994 699.61L39.5843 705.491C39.3587 705.708 39.2477 706.018 39.2843 706.329L40.3866 715.694C40.4967 716.63 39.3701 717.185 38.6955 716.527L23.2142 701.438C22.6014 700.841 22.9731 699.8 23.8256 699.726L44.9197 697.893C45.8592 697.812 46.3792 698.957 45.6994 699.61Z" stroke="#2B323E" stroke-width="2.5"/>
<rect x="-1.61917" y="0.709422" width="76.5" height="60.5" rx="10.75" transform="matrix(-0.931438 -0.3639 -0.3639 0.931438 221.778 85.6743)" stroke="#2B323E" stroke-width="2.5"/>
<rect x="-1.61917" y="0.709422" width="76.5" height="60.5" rx="10.75" transform="matrix(-0.931438 -0.3639 -0.3639 0.931438 214.778 457.673)" stroke="#2B323E" stroke-width="2.5"/>
<rect x="433.428" y="319.959" width="63.5915" height="50.2059" rx="10.75" transform="rotate(12.5808 433.428 319.959)" stroke="#2B323E" stroke-width="2.5"/>
<path d="M452.245 343.451L453.932 349.784C454.013 350.086 453.947 350.409 453.755 350.656L449.241 356.452C448.662 357.196 449.338 358.254 450.256 358.041L467.077 354.137C467.91 353.943 468.132 352.86 467.441 352.355L453.801 342.386C453.04 341.83 452.002 342.54 452.245 343.451Z" stroke="#2B323E" stroke-width="2.5"/>
<rect x="426.428" y="691.958" width="63.5915" height="50.2059" rx="10.75" transform="rotate(12.5808 426.428 691.958)" stroke="#2B323E" stroke-width="2.5"/>
<path d="M445.245 715.45L446.932 721.783C447.013 722.085 446.947 722.408 446.755 722.655L442.241 728.452C441.662 729.195 442.338 730.253 443.256 730.04L460.077 726.136C460.91 725.942 461.132 724.859 460.441 724.354L446.801 714.385C446.04 713.829 445.002 714.539 445.245 715.45Z" stroke="#2B323E" stroke-width="2.5"/>
<rect x="304.989" y="-77.2475" width="76.5" height="60.5" rx="10.75" transform="rotate(37.4564 304.989 -77.2475)" stroke="#2B323E" stroke-width="2.5"/>
<rect x="-0.122465" y="1.76352" width="76.5" height="60.5" rx="10.75" transform="matrix(-0.754394 0.656422 0.656422 0.754394 319.225 217.98)" stroke="#2B323E" stroke-width="2.5"/>
<rect x="-0.122465" y="1.76352" width="76.5" height="60.5" rx="10.75" transform="matrix(-0.754394 0.656422 0.656422 0.754394 312.225 589.979)" stroke="#2B323E" stroke-width="2.5"/>
<rect x="304.989" y="-77.2475" width="76.5" height="60.5" rx="10.75" transform="rotate(37.4564 304.989 -77.2475)" stroke="#2B323E" stroke-width="2.5"/>
<rect x="-0.60479" y="1.66109" width="76.5" height="60.5" rx="10.75" transform="matrix(-0.906353 0.422521 0.422521 0.906353 357.747 128.878)" stroke="#2B323E" stroke-width="2.5"/>
<path d="M342.973 162.159L342.602 170.635C342.588 170.947 342.721 171.248 342.962 171.448L350.221 177.469C350.946 178.07 350.513 179.249 349.571 179.239L327.954 178.992C327.098 178.982 326.649 177.972 327.215 177.33L341.224 161.454C341.848 160.746 343.014 161.217 342.973 162.159Z" stroke="#2B323E" stroke-width="2.5"/>
<rect x="-0.60479" y="1.66109" width="76.5" height="60.5" rx="10.75" transform="matrix(-0.906353 0.422521 0.422521 0.906353 350.747 500.877)" stroke="#2B323E" stroke-width="2.5"/>
<path d="M335.973 534.158L335.602 542.634C335.588 542.946 335.721 543.247 335.962 543.447L343.221 549.468C343.946 550.07 343.513 551.248 342.571 551.238L320.954 550.991C320.098 550.981 319.649 549.971 320.215 549.329L334.224 533.453C334.848 532.745 336.014 533.216 335.973 534.158Z" stroke="#2B323E" stroke-width="2.5"/>
<rect x="304.989" y="-77.2475" width="76.5" height="60.5" rx="10.75" transform="rotate(37.4564 304.989 -77.2475)" stroke="#2B323E" stroke-width="2.5"/>
<rect x="304.989" y="-77.2475" width="76.5" height="60.5" rx="10.75" transform="rotate(37.4564 304.989 -77.2475)" stroke="#2B323E" stroke-width="2.5"/>
<rect x="317.492" y="19.9591" width="76.5" height="60.5" rx="10.75" transform="rotate(12.5808 317.492 19.9591)" stroke="#2B323E" stroke-width="2.5"/>
<path d="M340.026 47.7967L342.211 55.9943C342.292 56.2966 342.226 56.6193 342.034 56.8662L336.239 64.3067C335.661 65.05 336.337 66.1082 337.255 65.8952L358.313 61.0073C359.147 60.8138 359.368 59.7308 358.677 59.2258L341.583 46.7318C340.821 46.1754 339.783 46.8855 340.026 47.7967Z" stroke="#2B323E" stroke-width="2.5"/>
<rect x="288.67" y="380.492" width="76.5" height="60.5" rx="10.75" transform="rotate(12.5808 288.67 380.492)" stroke="#2B323E" stroke-width="2.5"/>
<path d="M311.205 408.33L313.389 416.527C313.47 416.83 313.404 417.153 313.212 417.399L307.418 424.84C306.839 425.583 307.515 426.641 308.433 426.428L329.491 421.54C330.325 421.347 330.546 420.264 329.855 419.759L312.761 407.265C312 406.709 310.962 407.419 311.205 408.33Z" stroke="#2B323E" stroke-width="2.5"/>
<rect x="372.428" y="-29.0409" width="63.5915" height="50.2059" rx="10.75" transform="rotate(12.5808 372.428 -29.0409)" stroke="#2B323E" stroke-width="2.5"/>
<path d="M391.245 -5.549L392.932 0.783714C393.013 1.0861 392.947 1.40877 392.755 1.65567L388.241 7.4525C387.662 8.1958 388.338 9.25404 389.256 9.04103L406.077 5.13668C406.91 4.9432 407.132 3.86018 406.441 3.35523L392.801 -6.61388C392.04 -7.17035 391.002 -6.46025 391.245 -5.549Z" stroke="#2B323E" stroke-width="2.5"/>
<rect x="434.046" y="-96.2466" width="76.5" height="60.5" rx="10.75" transform="rotate(37.4564 434.046 -96.2466)" stroke="#2B323E" stroke-width="2.5"/>
<path d="M465.954 52.2046L465.956 52.2007L476.854 24.3183L476.854 24.3183L476.856 24.3145C476.868 24.2841 476.872 24.245 476.861 24.1985C476.85 24.1542 476.824 24.1027 476.777 24.0552C476.715 24.0033 476.637 23.9661 476.554 23.95C476.471 23.9338 476.392 23.9405 476.327 23.962L456.168 32.1295C456.168 32.1297 456.167 32.1299 456.166 32.1302C456.093 32.1608 456.054 32.2093 456.037 32.2527C456.02 32.2961 456.016 32.3582 456.049 32.4304C456.049 32.431 456.05 32.4316 456.05 32.4321L465.33 52.112C465.372 52.1909 465.449 52.2661 465.556 52.3095C465.609 52.3294 465.664 52.3402 465.717 52.3423C465.786 52.3398 465.841 52.3193 465.88 52.2936C465.919 52.2671 465.942 52.2351 465.954 52.2046Z" fill="#111111" stroke="#2B323E" stroke-width="2.5"/>
<rect x="-0.883883" y="1.53093" width="76.8874" height="60.8089" rx="10.75" transform="matrix(-0.965926 0.258819 0.258819 0.965926 445.548 77.7477)" stroke="#2B323E" stroke-width="2.5"/>
<path d="M427.333 127.926L427.332 127.922L418.033 99.4657L418.033 99.4657L418.032 99.4617C418.022 99.4306 418.001 99.3973 417.962 99.3686C417.926 99.3413 417.873 99.318 417.807 99.3112C417.725 99.3109 417.642 99.3315 417.567 99.3719C417.493 99.4123 417.436 99.4675 417.4 99.5254L407.021 118.64C407.021 118.641 407.021 118.641 407.02 118.642C406.983 118.712 406.984 118.774 406.998 118.819C407.013 118.863 407.049 118.914 407.121 118.948C407.121 118.949 407.122 118.949 407.122 118.949L426.792 128.251C426.874 128.285 426.982 128.294 427.092 128.26C427.146 128.241 427.195 128.215 427.237 128.182C427.289 128.137 427.318 128.086 427.332 128.042C427.346 127.996 427.343 127.957 427.333 127.926Z" fill="#111111" stroke="#2B323E" stroke-width="2.5"/>
<path d="M452.759 436.738L452.76 436.734L463.659 408.852L463.659 408.852L463.66 408.848C463.672 408.817 463.677 408.778 463.666 408.732C463.655 408.687 463.629 408.636 463.582 408.588C463.519 408.536 463.442 408.499 463.359 408.483C463.275 408.467 463.197 408.474 463.132 408.495L442.973 416.663C442.972 416.663 442.972 416.663 442.971 416.663C442.898 416.694 442.859 416.742 442.842 416.786C442.825 416.829 442.821 416.891 442.854 416.964C442.854 416.964 442.854 416.965 442.855 416.965L452.135 436.645C452.176 436.724 452.254 436.799 452.361 436.843C452.414 436.863 452.468 436.873 452.522 436.875C452.59 436.873 452.646 436.853 452.684 436.827C452.724 436.8 452.747 436.768 452.759 436.738Z" fill="#111111" stroke="#2B323E" stroke-width="2.5"/>
<rect x="-0.883883" y="1.53093" width="79.124" height="62.5926" rx="10.75" transform="matrix(-0.965926 0.258819 0.258819 0.965926 428.709 445.281)" stroke="#2B323E" stroke-width="2.5"/>
<path d="M409.954 496.87L409.953 496.866L400.392 467.608L400.392 467.608L400.391 467.604C400.378 467.565 400.352 467.525 400.307 467.491C400.264 467.459 400.203 467.432 400.128 467.425C400.038 467.424 399.945 467.447 399.863 467.492C399.781 467.536 399.718 467.598 399.677 467.663L389.006 487.317C389.006 487.318 389.005 487.318 389.005 487.319C388.962 487.399 388.962 487.473 388.98 487.528C388.998 487.583 389.042 487.643 389.124 487.682C389.124 487.683 389.125 487.683 389.125 487.683L409.35 497.247C409.443 497.286 409.563 497.295 409.684 497.258C409.743 497.238 409.797 497.208 409.845 497.172C409.903 497.121 409.937 497.063 409.953 497.01C409.97 496.957 409.967 496.909 409.954 496.87Z" fill="#111111" stroke="#2B323E" stroke-width="2.5"/>
<rect x="-0.232075" y="1.75247" width="76.5" height="60.5" rx="10.75" transform="matrix(-0.793817 0.608157 0.608157 0.793817 484.229 116.969)" stroke="#2B323E" stroke-width="2.5"/>
<path d="M476.745 152.953L478.211 161.309C478.265 161.617 478.461 161.883 478.739 162.026L487.126 166.338C487.963 166.769 487.795 168.014 486.873 168.207L465.712 172.63C464.874 172.805 464.218 171.916 464.632 171.167L474.885 152.642C475.342 151.817 476.582 152.024 476.745 152.953Z" stroke="#2B323E" stroke-width="2.5"/>
<rect x="-0.232075" y="1.75247" width="76.5" height="60.5" rx="10.75" transform="matrix(-0.793817 0.608157 0.608157 0.793817 477.229 488.968)" stroke="#2B323E" stroke-width="2.5"/>
<path d="M469.745 524.952L471.211 533.308C471.265 533.616 471.461 533.882 471.739 534.025L480.126 538.337C480.963 538.768 480.795 540.013 479.873 540.206L458.712 544.629C457.874 544.804 457.218 543.915 457.632 543.166L467.885 524.641C468.342 523.816 469.582 524.023 469.745 524.952Z" stroke="#2B323E" stroke-width="2.5"/>
<rect x="434.047" y="-96.2475" width="76.5" height="60.5" rx="10.75" transform="rotate(37.4564 434.047 -96.2475)" stroke="#2B323E" stroke-width="2.5"/>
<rect x="434.047" y="-96.2475" width="76.5" height="60.5" rx="10.75" transform="rotate(37.4564 434.047 -96.2475)" stroke="#2B323E" stroke-width="2.5"/>
<rect x="434.047" y="-96.2475" width="76.5" height="60.5" rx="10.75" transform="rotate(37.4564 434.047 -96.2475)" stroke="#2B323E" stroke-width="2.5"/>
<rect x="-0.232075" y="1.75247" width="76.5" height="60.5" rx="10.75" transform="matrix(-0.793817 0.608157 0.608157 0.793817 417.108 168.969)" stroke="#2B323E" stroke-width="2.5"/>
<path d="M409.624 204.953L411.09 213.309C411.144 213.617 411.34 213.883 411.618 214.026L420.004 218.338C420.842 218.769 420.674 220.014 419.752 220.207L398.591 224.63C397.753 224.805 397.097 223.916 397.511 223.167L407.764 204.642C408.221 203.817 409.461 204.024 409.624 204.953Z" stroke="#2B323E" stroke-width="2.5"/>
<rect x="-0.232075" y="1.75247" width="76.5" height="60.5" rx="10.75" transform="matrix(-0.793817 0.608157 0.608157 0.793817 410.108 540.968)" stroke="#2B323E" stroke-width="2.5"/>
<path d="M402.624 576.952L404.09 585.308C404.144 585.616 404.34 585.882 404.618 586.025L413.004 590.337C413.842 590.768 413.674 592.013 412.752 592.206L391.591 596.629C390.753 596.804 390.097 595.915 390.511 595.166L400.764 576.641C401.221 575.816 402.461 576.023 402.624 576.952Z" stroke="#2B323E" stroke-width="2.5"/>
<rect x="498.463" y="-45.5279" width="76.5" height="60.5" rx="10.75" transform="rotate(-18.6169 498.463 -45.5279)" stroke="#2B323E" stroke-width="2.5"/>
<rect x="-1.61917" y="0.709422" width="76.5" height="60.5" rx="10.75" transform="matrix(-0.931438 -0.3639 -0.3639 0.931438 512.835 20.6743)" stroke="#2B323E" stroke-width="2.5"/>
<rect x="-1.61917" y="0.709422" width="76.5" height="60.5" rx="10.75" transform="matrix(-0.931438 -0.3639 -0.3639 0.931438 499.64 405.207)" stroke="#2B323E" stroke-width="2.5"/>
<rect width="503" height="750" fill="url(#paint0_radial_481_2)" fill-opacity="0.27"/>
</g>
<defs>
<radialGradient id="paint0_radial_481_2" cx="0" cy="0" r="1" gradientUnits="userSpaceOnUse" gradientTransform="translate(251.5 375) rotate(90) scale(375 251.5)">
<stop offset="0.135417" stop-opacity="0"/>
<stop offset="1"/>
</radialGradient>
<clipPath id="clip0_481_2">
<rect width="500" height="750" fill="white"/>
</clipPath>
</defs>
</svg>
