<svg width="500" height="184" viewBox="0 0 500 184" fill="none" xmlns="http://www.w3.org/2000/svg">
<rect y="96" width="500" height="88" fill="black"/>
<rect y="96" width="500" height="88" fill="url(#paint0_linear_511_2)"/>
<path d="M307 0H415V108H307V0Z" fill="#48FAE4"/>
<path d="M352.515 70.8911C355.6 66.6741 362.929 67.076 365.629 70.8906" stroke="black" stroke-width="4" stroke-linecap="round"/>
<path d="M354.649 39.7194C354.649 48.839 352.852 56.2318 343.506 56.2318C334.161 56.2318 332.363 48.839 332.363 39.7194C332.363 30.5999 335.515 23.207 343.506 23.207C351.331 23.207 354.649 30.5999 354.649 39.7194Z" fill="black"/>
<path d="M384.914 39.3626C384.914 48.6793 383.048 56.232 373.343 56.232C363.638 56.232 361.771 48.6793 361.771 39.3626C361.771 30.0459 365.045 22.4932 373.343 22.4932C381.469 22.4932 384.914 30.0459 384.914 39.3626Z" fill="black"/>
<path d="M344.336 37.4488C343.364 40.3094 342.872 45.0695 336.864 42.854C332.858 41.3771 333.35 36.617 334.323 33.7564C335.296 30.8957 338.291 27.0587 341.796 28.3511C347.804 30.5665 345.309 34.5881 344.336 37.4488Z" fill="white"/>
<path d="M375.398 37.7828C374.396 40.7295 373.89 45.6328 367.701 43.3507C363.575 41.8293 364.082 36.926 365.084 33.9794C366.086 31.0327 369.171 27.0803 372.781 28.4115C378.97 30.6936 376.4 34.8362 375.398 37.7828Z" fill="white"/>
<ellipse cx="348.572" cy="45.9668" rx="2.14286" ry="2.23141" fill="white"/>
<ellipse cx="379.514" cy="45.7878" rx="2.31429" ry="2.40992" fill="white"/>
<path d="M415 0L439 29.0083V104.188L415 108V0Z" fill="#15B09D"/>
<defs>
<linearGradient id="paint0_linear_511_2" x1="250" y1="96" x2="250" y2="184" gradientUnits="userSpaceOnUse">
<stop stop-color="#273349"/>
<stop offset="0.359375" stop-color="#273349" stop-opacity="0.932292"/>
<stop offset="1" stop-color="#273349" stop-opacity="0"/>
</linearGradient>
</defs>
</svg>
